<svg width="48" height="48" viewBox="0 0 48 48" fill="none" xmlns="http://www.w3.org/2000/svg">
<g clip-path="url(#clip0_2_2572)">
<path d="M4 40C4 42.2 5.8 44 8 44H40C42.2 44 44 42.2 44 40V14H36.325C35.363 8.057 30.21 3.5 24 3.5C17.79 3.5 12.637 8.057 11.675 14H4V40ZM24 8.5C27.442 8.5 30.343 10.834 31.221 14H16.779C17.657 10.834 20.558 8.5 24 8.5ZM11.5 19V22H16.5V19H31.5V22H36.5V19H39V39H9V19H11.5Z" fill="white"/>
</g>
<defs>
<clipPath id="clip0_2_2572">
<rect width="48" height="48" fill="white"/>
</clipPath>
</defs>
</svg>
