<svg width="133" height="123" viewBox="0 0 133 123" fill="none" xmlns="http://www.w3.org/2000/svg">
<path d="M97.9523 18.2161C99.6996 16.1413 99.4444 13.0249 97.2369 11.4487C87.3239 4.37052 75.497 0.373072 63.2477 0.0248373C49.3567 -0.370071 35.7413 3.95128 24.6205 12.2847C13.4997 20.618 5.52907 32.4722 2.0075 45.9152C-1.51407 59.3583 -0.378943 73.5978 5.2279 86.3132C10.8347 99.0286 20.5827 109.47 32.8833 115.937C45.1839 122.403 59.3119 124.513 72.965 121.922C86.6181 119.331 98.9913 112.193 108.068 101.67C116.072 92.3913 121.097 80.9631 122.557 68.8702C122.882 66.1773 120.753 63.8871 118.043 63.7779C115.332 63.6687 113.071 65.7834 112.705 68.4712C111.361 78.3442 107.184 87.6566 100.63 95.2542C93.0031 104.096 82.6061 110.094 71.1338 112.271C59.6614 114.448 47.79 112.675 37.4541 107.242C27.1182 101.808 18.9271 93.0344 14.2158 82.3499C9.50455 71.6655 8.55072 59.7004 11.5098 48.4045C14.4689 37.1086 21.1665 27.1478 30.511 20.1455C39.8556 13.1431 51.2962 9.51199 62.9686 9.84382C72.9983 10.129 82.691 13.3257 90.887 18.992C93.1182 20.5345 96.205 20.2909 97.9523 18.2161Z" fill="white"/>
<path d="M123 19.1965L62.8776 79.6301L35.5492 52.1603" stroke="white" stroke-width="20" stroke-linecap="round" stroke-linejoin="round"/>
</svg>
