<?xml version="1.0" encoding="UTF-8"?>
<svg id="Warstwa_2" data-name="Warstwa 2" xmlns="http://www.w3.org/2000/svg" xmlns:xlink="http://www.w3.org/1999/xlink" viewBox="0 0 540.22 570">
  <defs>
    <style>
      .cls-1 {
        fill: url(#Gradient_bez_nazwy_141-5);
      }

      .cls-2 {
        fill: #d2bea9;
      }

      .cls-3 {
        fill: url(#Gradient_bez_nazwy_165);
      }

      .cls-4 {
        fill: url(#Gradient_bez_nazwy_141-2);
      }

      .cls-5 {
        fill: url(#Gradient_bez_nazwy_86);
      }

      .cls-6 {
        fill: url(#Gradient_bez_nazwy_86-2);
      }

      .cls-7 {
        fill: url(#Gradient_bez_nazwy_141-10);
      }

      .cls-8 {
        fill: url(#Gradient_bez_nazwy_141-9);
      }

      .cls-9 {
        fill: url(#Gradient_bez_nazwy_141-6);
      }

      .cls-10 {
        fill: url(#Gradient_bez_nazwy_52);
      }

      .cls-11 {
        fill: url(#Gradient_bez_nazwy_160);
      }

      .cls-12 {
        fill: url(#Gradient_bez_nazwy_141-3);
      }

      .cls-13 {
        fill: url(#Gradient_bez_nazwy_141-8);
      }

      .cls-14 {
        fill: url(#Gradient_bez_nazwy_86-3);
      }

      .cls-15 {
        fill: url(#Gradient_bez_nazwy_141);
      }

      .cls-16 {
        fill: #af9169;
      }

      .cls-17 {
        fill: #c5b39a;
      }

      .cls-18 {
        fill: #daceb2;
      }

      .cls-19 {
        fill: url(#Gradient_bez_nazwy_141-4);
      }

      .cls-20 {
        fill: #d3bfaa;
      }

      .cls-21 {
        fill: url(#Gradient_bez_nazwy_141-7);
      }

      .cls-22 {
        fill: url(#Gradient_bez_nazwy_47);
      }
    </style>
    <linearGradient id="Gradient_bez_nazwy_160" data-name="Gradient bez nazwy 160" x1="335.04" y1="108.28" x2="303.56" y2="77.16" gradientUnits="userSpaceOnUse">
      <stop offset="0" stop-color="#a7885f"/>
      <stop offset=".32" stop-color="#b59870"/>
      <stop offset=".85" stop-color="#d6be96"/>
    </linearGradient>
    <linearGradient id="Gradient_bez_nazwy_165" data-name="Gradient bez nazwy 165" x1="359.34" y1="126.91" x2="326.03" y2="113" gradientUnits="userSpaceOnUse">
      <stop offset="0" stop-color="#987851"/>
      <stop offset=".35" stop-color="#a78961"/>
      <stop offset=".85" stop-color="#c4aa81"/>
    </linearGradient>
    <linearGradient id="Gradient_bez_nazwy_86" data-name="Gradient bez nazwy 86" x1="266.69" y1="29.55" x2="251.07" y2="19.79" gradientUnits="userSpaceOnUse">
      <stop offset="0" stop-color="#987851"/>
      <stop offset=".2" stop-color="#a38762"/>
      <stop offset=".58" stop-color="#c1ae8e"/>
      <stop offset=".85" stop-color="#daceb3"/>
    </linearGradient>
    <linearGradient id="Gradient_bez_nazwy_47" data-name="Gradient bez nazwy 47" x1="281.91" y1="440.06" x2="440.49" y2="440.06" gradientUnits="userSpaceOnUse">
      <stop offset="0" stop-color="#daceb3"/>
      <stop offset=".2" stop-color="#d0c1a4"/>
      <stop offset=".59" stop-color="#b6a07e"/>
      <stop offset="1" stop-color="#987851"/>
    </linearGradient>
    <linearGradient id="Gradient_bez_nazwy_52" data-name="Gradient bez nazwy 52" x1="242.29" y1="440.03" x2="83.71" y2="440.03" gradientUnits="userSpaceOnUse">
      <stop offset="0" stop-color="#daceb3"/>
      <stop offset=".2" stop-color="#d0c1a4"/>
      <stop offset=".59" stop-color="#b6a07e"/>
      <stop offset="1" stop-color="#987851"/>
    </linearGradient>
    <linearGradient id="Gradient_bez_nazwy_86-2" data-name="Gradient bez nazwy 86" x1="271.39" y1="19.36" x2="248.45" y2="5.94" xlink:href="#Gradient_bez_nazwy_86"/>
    <linearGradient id="Gradient_bez_nazwy_86-3" data-name="Gradient bez nazwy 86" x1="267.35" y1="7.23" x2="247.34" y2="-6.68" xlink:href="#Gradient_bez_nazwy_86"/>
    <linearGradient id="Gradient_bez_nazwy_141" data-name="Gradient bez nazwy 141" x1="279.57" y1="267.86" x2="141.94" y2="-22.03" gradientUnits="userSpaceOnUse">
      <stop offset="0" stop-color="#a4845b"/>
      <stop offset=".19" stop-color="#b2946c"/>
      <stop offset=".54" stop-color="#d6bf98"/>
      <stop offset=".6" stop-color="#ddc7a0"/>
      <stop offset=".87" stop-color="#aa8457"/>
      <stop offset="1" stop-color="#e8d0b7"/>
    </linearGradient>
    <linearGradient id="Gradient_bez_nazwy_141-2" data-name="Gradient bez nazwy 141" x1="288.06" y1="263.83" x2="150.43" y2="-26.06" xlink:href="#Gradient_bez_nazwy_141"/>
    <linearGradient id="Gradient_bez_nazwy_141-3" data-name="Gradient bez nazwy 141" x1="213.04" y1="299.44" x2="75.42" y2="9.56" xlink:href="#Gradient_bez_nazwy_141"/>
    <linearGradient id="Gradient_bez_nazwy_141-4" data-name="Gradient bez nazwy 141" x1="211.14" y1="300.34" x2="73.52" y2="10.46" xlink:href="#Gradient_bez_nazwy_141"/>
    <linearGradient id="Gradient_bez_nazwy_141-5" data-name="Gradient bez nazwy 141" x1="212.14" y1="299.87" x2="74.52" y2="9.98" xlink:href="#Gradient_bez_nazwy_141"/>
    <linearGradient id="Gradient_bez_nazwy_141-6" data-name="Gradient bez nazwy 141" x1="184.07" y1="313.2" x2="46.45" y2="23.31" xlink:href="#Gradient_bez_nazwy_141"/>
    <linearGradient id="Gradient_bez_nazwy_141-7" data-name="Gradient bez nazwy 141" x1="190.18" y1="310.29" x2="52.56" y2="20.41" xlink:href="#Gradient_bez_nazwy_141"/>
    <linearGradient id="Gradient_bez_nazwy_141-8" data-name="Gradient bez nazwy 141" x1="242.83" y1="285.3" x2="105.21" y2="-4.59" xlink:href="#Gradient_bez_nazwy_141"/>
    <linearGradient id="Gradient_bez_nazwy_141-9" data-name="Gradient bez nazwy 141" x1="248.9" y1="282.42" x2="111.27" y2="-7.47" xlink:href="#Gradient_bez_nazwy_141"/>
    <linearGradient id="Gradient_bez_nazwy_141-10" data-name="Gradient bez nazwy 141" x1="209.54" y1="301.11" x2="71.92" y2="11.22" xlink:href="#Gradient_bez_nazwy_141"/>
  </defs>
  <path class="cls-11" d="M319.22,101.82l-1.88-5.19c-.3-.83-1.23-1.77-2.05-2.08l-5.06-1.91,5.06-1.91c.83-.31,1.75-1.25,2.05-2.08l1.88-5.19,1.88,5.19c.3.83,1.23,1.77,2.05,2.08l5.06,1.91-5.06,1.91c-.83.31-1.75,1.25-2.05,2.08l-1.88,5.19Z"/>
  <path class="cls-3" d="M341.78,123.75l-.56-1.54c-.3-.83-1.23-1.77-2.05-2.08l-1.48-.56,1.48-.56c.83-.31,1.75-1.25,2.05-2.08l.56-1.54.56,1.54c.3.83,1.23,1.77,2.05,2.08l1.48.56-1.48.56c-.83.31-1.75,1.25-2.05,2.08l-.56,1.54Z"/>
  <circle class="cls-5" cx="258.86" cy="24.66" r="2.56"/>
  <circle class="cls-18" cx="232.02" cy="158.39" r="1.73"/>
  <circle class="cls-18" cx="125.87" cy="210.12" r="2.56"/>
  <circle class="cls-18" cx="109.93" cy="203.45" r="2.06"/>
  <circle class="cls-18" cx="138.03" cy="157.07" r="2.06"/>
  <circle class="cls-16" cx="141.33" cy="271.78" r="2.06"/>
  <path class="cls-2" d="M268.68,551.85c-10.61,2.38-15.56-3.7-15.56-10.22s4.39-12.48,13.39-11.8c.3.02.59.05.89.09-2-1.14-4.32-1.8-6.8-1.8-7.5,0-13.57,5.97-13.57,13.33s6.08,13.33,13.57,13.33c3.29,0,6.31-1.15,8.66-3.06-.19.04-.38.09-.57.14Z"/>
  <circle class="cls-2" cx="260.2" cy="514.46" r="2.64"/>
  <circle class="cls-2" cx="260.2" cy="567.9" r="2.1"/>
  <g>
    <path class="cls-2" d="M9.44,337.95h-.35c-.08-2.04-.85-3.79-2.3-5.25-1.46-1.45-3.21-2.18-5.25-2.18H0v-1.18h9.44v8.61ZM9.44,403.3v8.61H0v-1.18h1.53c2.04,0,3.79-.73,5.25-2.18,1.45-1.45,2.22-3.2,2.3-5.25h.35ZM16.75,329.34v82.57h-7.67v-82.57h7.67ZM16.4,337.95v-8.61h9.44v1.18h-1.53c-2.05,0-3.79.73-5.25,2.18-1.46,1.46-2.22,3.21-2.3,5.25h-.35ZM48.6,408.26v3.66H16.4v-3.66h32.2ZM55.79,392.8l-6.84,19.11h-19.58l4.25-3.66c4.17,0,7.57-.65,10.2-1.95,2.63-1.3,4.78-3.13,6.43-5.48s3.11-5.03,4.36-8.02h1.18Z"/>
    <path class="cls-2" d="M82.68,329.34v7.08h-.35c0-1.73-.61-3.14-1.83-4.25-1.22-1.1-2.69-1.65-4.42-1.65h-1.89v-1.18h8.49ZM90,329.34v51.9c0,5.66,1.04,10.66,3.13,14.98,2.08,4.33,5.01,7.69,8.79,10.08,3.77,2.4,8.14,3.6,13.09,3.6,5.27,0,9.87-1.14,13.8-3.42,3.93-2.28,7-5.44,9.2-9.49,2.2-4.05,3.3-8.79,3.3-14.21v-53.43h5.54v53.43c0,6.13-1.32,11.5-3.95,16.1-2.64,4.6-6.35,8.2-11.15,10.79-4.8,2.59-10.38,3.89-16.75,3.89s-12.25-1.28-17.16-3.83c-4.92-2.55-8.73-6.13-11.44-10.73s-4.07-9.97-4.07-16.1v-53.55h7.67ZM98.14,329.34v1.18h-1.89c-1.73,0-3.21.55-4.42,1.65-1.22,1.1-1.83,2.52-1.83,4.25h-.24v-7.08h8.37ZM141.66,329.34v7.08h-.35c0-1.73-.61-3.14-1.83-4.25-1.22-1.1-2.69-1.65-4.42-1.65h-1.89v-1.18h8.49ZM154.99,329.34v1.18h-1.89c-1.73,0-3.21.55-4.42,1.65-1.22,1.1-1.83,2.52-1.83,4.25h-.24v-7.08h8.37Z"/>
    <path class="cls-2" d="M184.24,403.3v8.61h-13.09v-1.18h1.89c2.12,0,4.01-.65,5.66-1.95s2.63-3.13,2.95-5.48h2.59ZM190.49,327.69h1.18l2.36,6.96-6.96,77.26h-6.37l9.79-84.22ZM187.66,405.19v.59c0,1.26.45,2.42,1.36,3.48.9,1.06,1.98,1.59,3.24,1.59h1.77v1.06h-7.2v-6.72h.83ZM191.67,327.69l33.97,73.48-2.71,12.39-33.5-72.66,2.24-13.21ZM256.78,327.69l.94,7.9-29.61,65.94c-1.18,2.67-2.08,4.94-2.71,6.78-.63,1.85-1.06,3.6-1.3,5.25h-1.18l-1.65-7.43,35.5-78.44ZM258.2,405.19h.83v6.72h-7.2v-1.06h1.77c1.34,0,2.44-.53,3.3-1.59.86-1.06,1.3-2.22,1.3-3.48v-.59ZM257.84,327.69l10.14,84.22h-9.2l-6.49-71.48,4.48-12.74h1.06ZM264.45,403.3h2.48c.39,2.36,1.42,4.19,3.07,5.48s3.5,1.95,5.54,1.95h1.89v1.18h-12.97v-8.61Z"/>
    <path class="cls-2" d="M306.56,337.95h-.35c0-2.04-.75-3.79-2.24-5.25-1.49-1.45-3.26-2.18-5.31-2.18h-1.42l-.12-1.18h9.44v8.61ZM306.56,403.3v8.61h-9.44v-1.18h1.53c2.04,0,3.79-.73,5.25-2.18,1.45-1.45,2.22-3.2,2.3-5.25h.35ZM313.87,329.34v82.57h-7.67v-82.57h7.67ZM345.72,329.34v3.66h-32.2v-3.66h32.2ZM340.65,369.45v3.54h-27.13v-3.54h27.13ZM345.72,408.26v3.66h-32.2v-3.66h32.2ZM352.92,392.8l-6.84,19.11h-19.58l4.25-3.66c4.17,0,7.57-.65,10.2-1.95,2.63-1.3,4.78-3.13,6.43-5.48,1.65-2.36,3.11-5.03,4.36-8.02h1.18ZM345.72,327.22v3.42l-14.39-1.3c1.73,0,3.56-.12,5.48-.35,1.93-.24,3.72-.51,5.37-.83,1.65-.31,2.83-.63,3.54-.94ZM340.65,361.9v7.78h-6.84v-.24c1.57-.08,2.91-.69,4.01-1.83,1.1-1.14,1.65-2.5,1.65-4.07v-1.65h1.18ZM340.65,372.75v7.78h-1.18v-1.77c0-1.57-.55-2.93-1.65-4.07-1.1-1.14-2.44-1.71-4.01-1.71v-.24h6.84ZM345.72,332.65v9.44h-1.18v-2.12c0-1.89-.67-3.52-2.01-4.9-1.34-1.38-2.99-2.1-4.95-2.18v-.24h8.14Z"/>
    <path class="cls-2" d="M384.29,337.95h-.35c-.08-2.04-.85-3.79-2.3-5.25-1.46-1.45-3.21-2.18-5.25-2.18h-1.53v-1.18h9.44v8.61ZM384.29,403.3v8.61h-9.44v-1.18h1.53c2.04,0,3.79-.73,5.25-2.18,1.45-1.45,2.22-3.2,2.3-5.25h.35ZM391.6,329.34v82.57h-7.67v-82.57h7.67ZM406.7,329.34c3.54,0,6.74.51,9.61,1.53,2.87,1.02,5.29,2.5,7.25,4.42,1.96,1.93,3.48,4.25,4.54,6.96,1.06,2.71,1.59,5.8,1.59,9.26,0,3.77-.88,7.39-2.65,10.85-1.77,3.46-4.17,6.27-7.2,8.43-3.03,2.16-6.43,3.24-10.2,3.24,1.34.55,2.79,1.67,4.36,3.36,1.57,1.69,2.95,3.32,4.13,4.89,2.12,3.07,3.99,5.7,5.6,7.9,1.61,2.2,3.24,4.36,4.9,6.49,1.65,2.12,3.07,3.82,4.25,5.07,1.57,1.73,3.14,3.26,4.72,4.6,1.57,1.34,3.28,2.4,5.13,3.18,1.85.79,3.91,1.18,6.19,1.18v1.18h-6.49c-3.62,0-6.74-.55-9.38-1.65-2.64-1.1-4.86-2.46-6.66-4.07-1.81-1.61-3.34-3.16-4.6-4.66-.24-.31-.89-1.22-1.95-2.71-1.06-1.49-2.32-3.28-3.77-5.37-1.46-2.08-2.89-4.15-4.31-6.19-1.42-2.04-2.64-3.79-3.66-5.25-1.02-1.45-1.61-2.3-1.77-2.54-1.49-1.96-3.15-3.77-4.95-5.43-1.81-1.65-3.77-2.48-5.9-2.48v-1.18c2.44.08,4.52.08,6.25,0,2.04-.08,4.29-.39,6.72-.94,2.44-.55,4.72-1.69,6.84-3.42,2.12-1.73,3.73-4.36,4.84-7.9.24-.86.43-1.95.59-3.24.16-1.3.2-2.57.12-3.83-.08-5.35-1.44-9.61-4.07-12.8-2.64-3.18-6.15-4.9-10.56-5.13-2.2-.16-4.46-.22-6.78-.18-2.32.04-5.05.06-8.2.06,0-.08-.1-.41-.29-1-.2-.59-.49-1.47-.89-2.65h16.63ZM391.25,403.3h.35c0,2.05.75,3.79,2.24,5.25,1.49,1.46,3.26,2.18,5.31,2.18h1.42v1.18h-9.32v-8.61Z"/>
    <path class="cls-2" d="M471.93,403.3c-.55,1.57-.63,2.91-.24,4.01.39,1.1,1.04,1.95,1.95,2.54.9.59,1.83.88,2.77.88h1.06v1.18h-23.71v-1.18h1.06c1.81,0,3.67-.57,5.6-1.71,1.93-1.14,3.52-3.05,4.78-5.72h6.72ZM497.29,327.69l1.06,8.26-29.61,75.61h-7.08l30.2-71.72c.86-1.96,1.59-3.66,2.18-5.07.59-1.42,1.1-2.79,1.53-4.13.43-1.34.65-2.32.65-2.95h1.06ZM497.29,327.69l34.91,83.51h-10.03l-27.25-72.31,2.36-11.21ZM519.23,403.3h9.67c1.18,2.67,2.75,4.58,4.72,5.72,1.96,1.14,3.85,1.71,5.66,1.71h.94v1.18h-26.54v-1.18h1.06c1.49,0,2.83-.65,4.01-1.95,1.18-1.3,1.34-3.13.47-5.48Z"/>
  </g>
  <path class="cls-2" d="M262.1,450.11l-2.1-5.8c-.3-.83-1.23-1.77-2.05-2.08l-5.66-2.14,5.66-2.14c.83-.31,1.75-1.25,2.05-2.08l2.1-5.8,2.1,5.8c.3.83,1.23,1.77,2.05,2.08l5.66,2.14-5.66,2.14c-.83.31-1.75,1.25-2.05,2.08l-2.1,5.8Z"/>
  <polygon class="cls-22" points="281.91 438.12 440.49 439.63 440.49 440.63 281.91 442 281.91 438.12"/>
  <polygon class="cls-10" points="242.29 441.97 83.71 440.6 83.71 439.6 242.29 438.09 242.29 441.97"/>
  <circle class="cls-20" cx="494.93" cy="385.05" r="4.51"/>
  <circle class="cls-6" cx="258.86" cy="12.03" r="1.71"/>
  <circle class="cls-14" cx="258.86" cy="1.33" r="1.33"/>
  <path class="cls-17" d="M275.01,233.28l-2.6.85c-5.56,1.47-12.76,4.46-20.57,5.13l-2.93,9.95-2.56,7.28,7.39-28.32,6.43-23.01c1.72-6.18,3.82-12.8,8.66-16.89-3.76,5.27-5.91,11.11-7.15,17.3.1.33.1.97-.36,1.13-2.78,10.37-5.56,20.92-9.33,31.73l12.32-3.43c5.14-1.43,9.95-3.1,15.31-3.62,8.23-.79,16,1.49,22.29,6.4l.46.38c.17.21.41.4.93.79.32.43.68.83,1.1,1.11l9.15,12.6c-1.91-.36-8.96-10.68-10.93-12.29-.32-.47-.81-.66-1.25-1.16-.7-.66-1.4-1.13-2.69-2.04l-4.01-2.52c-5.73-2.53-12.58-2.5-16-2.12"/>
  <path class="cls-17" d="M275.01,233.28l-2.6.85c-5.56,1.47-12.76,4.46-20.57,5.13l-2.93,9.95-2.31,7.28,7.14-28.32,6.43-23.01c1.72-6.18,3.82-12.8,8.66-16.89-3.76,5.27-5.91,11.11-7.15,17.3.1.33.1.97-.36,1.13-2.78,10.37-5.56,20.92-9.33,31.73l12.32-3.43c5.14-1.43,9.95-3.1,15.31-3.62,8.23-.79,16,1.49,22.29,6.4l.46.38c.17.21.41.4.93.79.32.43.68.83,1.1,1.11l9.15,12.6c-1.91-.36-8.96-10.68-10.93-12.29-.32-.47-.81-.66-1.25-1.16-.7-.66-1.4-1.13-2.69-2.04l-4.01-2.52c-5.73-2.53-12.58-2.5-16-2.12"/>
  <path class="cls-17" d="M275.01,233.28l-2.6.85c-5.56,1.47-12.81,4.62-20.62,5.29l-2.88,9.79-1.77,7.28,6.6-28.32,6.43-23.01c1.46-7.67,5.25-15.65,11.11-19.77-4.51,5.12-8.36,13.99-9.59,20.18.1.33.1.97-.36,1.13-2.78,10.37-5.42,20.51-9.19,31.33l12.18-3.02c5.14-1.43,9.95-3.1,15.31-3.62,8.23-.79,16,1.49,22.29,6.4l.46.38c.17.21.41.4.93.79.32.43.68.83,1.1,1.11l9.15,12.6c-1.91-.36-8.96-10.68-10.93-12.29-.32-.47-.81-.66-1.25-1.16-.7-.66-1.4-1.13-2.69-2.04l-4.01-2.52c-5.73-2.53-12.58-2.5-16-2.12"/>
  <path class="cls-17" d="M249.58,91.08c.22.2.36.52.51.76,1.97,3.03,3.77,6.57,4.66,10.47,1.15,5.04,4.33,9,8.91,11.31,5.48,2.76,11.11,4.75,17.07,6.38,2.27.62,3.64,2.35,3.13,4.91-.45,2.23-1.52,4.47-2.76,6.42-1.39,2.2-.93,4.81,1.54,5.89l3.72,1.62c1.13,2.44.61,4.74-.25,7.27,2.66.58,5.13,3.22,4.12,5.75-1.28,3.23-.83,5.77,1.93,7.98,4.19,3.36,5.71,9.29,2.31,13.72-4.73,6.17-26.26,11.41-35.6,13.26-6.39,1.27-13.1,1.95-19.55.25l-12.17-5.38c5.06,1.02,12.08,6.87,28,4.46,11.16-1.69,21.83-4.9,32.16-9.31,3.08-1.31,6.08-3.34,7.43-6.34,1.76-3.9-.48-7.78-3.45-10.35-1.98-1.71-3.3-3.59-2.67-6.5-1.81.57-6.31,1.17-7.43.34,1.8-.15,7.37-.8,8.12-2.66.82-2.04-1.95-4.76-4.18-4.22-3.29.81-4.88,5.82-8.47,5.96,4.98-4.59,3.89-10.59,8.18-14.06-2.8-.86-5.75-2.87-5.35-5.64l2.95-7.02c.53-1.26,1.07-4.45-.86-5.05-6.45-2.01-12.7-3.8-18.63-6.96-10-5.33-7.6-12.5-12.54-19.6-3.5-6.19-8.85-11.07-14.17-15.73.03-.09-.54-.41-.59-.52-.44-.34-.43-.14-.98-.8-.06-.07-1.58-1.02-1.72-1.14-.49-.29-1.64-1.14-2.37-1.56l-.27-.27-.27-.27-.42-.27-.67-.27-.55-.28-.53-.27s-3.18-1.5-5.19-2.66c1.53.39,4.97,1.93,5.08,1.99.36.18.68.35.64.34l.56.34.42.2.39.25c.11.04.48.25.57.35l.27.18.51.33c1.19.62,2.2,1.19,3.27,1.96l.33.23,1.85,1.39.44.15,4.09,3.34,8.54,9.32ZM280.82,149.39l4.68-5.08c1.02-1.1.63-3.3.04-4.79-1.77,1.29-2.71,3.2-3.35,5.34l-1.37,4.53Z"/>
  <path class="cls-17" d="M249,101.24c-9.33-2.21-16.25,7.54-22.03,15.53,2.3-6.85,9.47-18.82,17.84-19.51,1.06-.09,2.32,0,2.85.46.94.81,1.27,1.88,1.34,3.52Z"/>
  <path class="cls-17" d="M247.06,111.15c-.1-.08.82.15.11-.8.24.69.53.87.56.91l.28.81c.04.11.17.19.26.28l.28.27.27.28.52.7.09.26.78.95.25.25.44.75.18.18c1.27,1.27,2.72.82,4.9.32-1.13,1.24-2.57,2.49-2.38,3.96-3.06,2.22-6.6,3.7-10.52,3.67-2.15-.16-4.28.31-6.11-.47,6.42-1.56,16.42-3.65,13.7-7l-.24-.26-.45-.76-.14-.31-.71-.85-.32-.29-.26-.83-.27-.27-.27-.27-.27-.27-.27-.82-.4-.38Z"/>
  <path class="cls-17" d="M279.33,128.39c-4.74,3.31-3.19,7.06-6.81,6.03,2.94-.73,2.87-6.32,6.81-6.03Z"/>
  <g>
    <path class="cls-15" d="M162.82,215.32c.01-.12.67-6.69.99-8.22.33-1.55,3.49-15.68,3.49-15.68-4.6-10.76-8.09-36.65-8.09-36.65-4.58-57.78,47.29-107.81,104.71-114.39-8.11-.01-16.35.73-24.6,2.29-62.18,11.76-106.67,68.04-88.91,142.34,2.6,10.86,6.84,21.01,12.4,30.31Z"/>
    <path class="cls-4" d="M280.37,269.13c-46,0-84.51-23.55-105.18-60.66-4.01,2.35-7.91,5-11.42,8.36,4.12,6.87,8.94,13.23,14.34,19.04.12-.42.24-.84.37-1.26l3.38-11.08,5.25,13.44c1.38,3.53,2.72,7.07,3.61,10.65,30,24.26,71.58,34.7,110.65,25.68,31.38-7.25,54.87-26.18,68.9-51.13-21.1,27.89-53.19,46.96-89.89,46.96Z"/>
    <path class="cls-12" d="M183.2,232.12c-.33,3.17-.28,5.95-.04,8.88,1.77,1.69,3.58,3.32,5.45,4.9-1.42-4.51-3.4-8.72-5.41-13.77Z"/>
    <path class="cls-19" d="M167.96,193.12c.06.14-.04-.09,0,0,.15.39-4.2,23.72-4.2,23.72l8.17-14.63c-1.43-2.96-2.76-5.98-3.97-9.09Z"/>
    <path class="cls-1" d="M182.24,240.11l-.5-10.81c-1.03,2.67-1.88,5.25-2.54,7.74.99,1.04,2.01,2.07,3.04,3.07Z"/>
    <path class="cls-9" d="M178.54,276.19c1.3.41,1.55,0,1.55,0l-1.22-.69-7.12-2.11s-7.04-1.87-7.4-1.99c-.37-.12-3.86-.41-3.86-.41,0,0-1.22-.61-1.91-.94-.69-.33-1.42-.49-2.36-.34-.91.15-5.23,1.79-5.47,1.87.37.21,1.53.92,2.13,1.19.81.37,2.4,1.06,2.93,1.3.53.24,2.16.12,2.89-.24s1.06-.45,1.22-.82c.16-.37.37-1.05.37-1.05,0,0,.69-.04.85,0s2.11.24,2.93.24,3.58,1.18,5.73,1.63c2.16.45,7.44,1.95,8.74,2.35Z"/>
    <path class="cls-21" d="M190.66,257.34c.09,1.98-.3,3.85-.4,6.06l-.24,5.28-.04.72c-.07,1.4-.54,2.87-.6,4.32-3.67-9.85-5.03-20.52-6.09-31.28-.05-.49-.09-.97-.13-1.44-.31-.29-.62-.59-.92-.89l.05,1.08.52,6.59c.71,8.87,2.12,17.24,4.73,26.01-9.85-11.97-11.93-23.16-8.34-36.75-.37-.38-.73-.77-1.09-1.16-3.78,13.68-1.42,27.7,8.05,38.55,1.43,1.64,3.18,3.1,3.38,5.65-10.55-6.93-18.17-16.94-22.48-28.34h0c-3.13-8.28-4.11-17.17-3.57-25.98.02-.25-.05-2.6.12-3.17.38-3.58-.04-6.13.15-5.76l-.94-1.51c-.37,5.77-.94,19.25.11,24.59l.12,2.09,1.91,8.21h0c.11.48-.06,1.22-.22,1.9,0,0-6.97-13.47-7.79-15.22-.75-1.59-3.5-9.73-4.1-11.5-.03-.22-.06-.41-.11-.53l.58-12.19c.95-19.84-9.05-27.6-15.42-43.94-1.26,1.9-.85,4.24-1.14,6.13l-.02,1.23c-2.26,20.82.79,33.92,14.85,49.77.88,2.13,5.11,12.39,6.13,14.57,1.14,2.44,6.83,12.54,6.83,12.54l10.37,15.98-.92.2c-.63-.41-2.34-1.53-2.9-1.92-.69-.49-5.49-4.31-6.47-4.88-.98-.57-4.48-3.47-5-3.83-.12-.08-.29-.17-.48-.26l-3.16-5.52c-4.69-9.8-12.08-17.65-21.49-23.12l-8.68-5.05-4.38-2.8c-.18-.12-.8-.56-1.03-.6-1.62-1.3-1.73-2.67-3.85-3.57-.14,1.84.92,2.98,1.53,4.35,3.01,6.8,6.1,13.67,10.86,19.62,6.1,7.62,13.85,12.51,23.17,15.03l5.4,1.46s5.36,3.62,6.22,4.31c.85.69,4.92,3.99,5.37,4.27.45.28,4.39,3.08,4.39,3.08l6.41,4.99,5.02,4.14c4.15,3.42,8.85,6.01,13.39,8.84.26.06,6.49,3.93,6.81,3.8-3.41-2.56-12.38-9.53-14-13.38-.54-1.27-.65-2.61-.48-3.86l.74-5.31c.39-2.8-.51-5.47.31-8.4l.09-4.29c.06-2.92-.37-5.78-1.07-8.62-.71-.57-1.41-1.15-2.1-1.74,1.09,3.47,1.86,7.11,2.05,11.45ZM137.64,193.62c.16-5.1-.33-9.77.95-15.06,2.87,14.01,6.7,27.25,10.74,41.51-7.05-7.27-10.61-16.71-11.69-26.45ZM151.16,219.88c-4.61-14.03-8.65-27.3-11.31-41.8,10.07,13.69,13.71,25.05,11.31,41.8ZM153.29,255.25l-5.22-1.66c-11.72-4.56-20.65-13.84-25.21-25.82l11.65,11.06,19.12,16.03c-.11.09-.23.21-.34.38ZM130.88,233.77c-3.05-2.51-5.85-5.31-7.43-8.44l1.26.34,6.5,3.92c9.7,5.05,18.05,12.58,22.51,22.97l-22.84-18.79Z"/>
    <path class="cls-13" d="M175.19,208.47c7.05-4.12,14.42-7.3,20.57-11.68,3.23-2.31,5.91-5.13,8.53-8.16.39-.44.9-1.16,1.1-1.39l.95-1.59,7.38-12.67,2.58-3.89c-.32-.15-.61-.33-.87-.54.26.21.54.39.86.53.49-.74,1.78-1.32,1.61-2.55-1.44.09-2.3.9-3.23,1.27,0,0,0,0,0,0l-14.58,5.73c-11.17,4.39-20.6,11.98-24.93,22.9l-3.23,5.77c.17.36.34.72.52,1.07.87,1.76,1.79,3.49,2.74,5.2ZM194.97,195.61c-5.67,4.27-13.34,8.04-20.53,10.1,4.53-5.83,22.32-19.98,28.92-26.6l8.24-6.54c-3.55,8.71-9.84,17.93-16.62,23.04ZM201.63,174.5l10.26-3.49c-.05.31-.24.51-.47.86l-6.71,5.18c-.74.57-1.51,1.05-2.19,1.63-7.5,4.95-23.09,20.76-28.46,25.01,3.94-13.19,14.85-24.87,27.57-29.2Z"/>
    <path class="cls-8" d="M190.94,112.98c-4.09,4.58-7.55,9.48-9.66,15-.1.27-.18.41-.31.66l-.17.51-.24.51c-.08.37-.23.58-.29.87-2.19,5.88-2.36,12.38-2.19,18.94l-.05,12.9-7.4,19.78-.75-12.11c-.03-.19-.09-.39-.14-.69l-3.7-16.7c-.24-.95-.85-5.92-1.69-8.07,1.79,3.19,4.03,6.2,5.04,9.68,1.47,5.04-.77,11.07.78,12.28.02-.2.14-1.28.28-1.9,1.08-3.45,1.02-7.48-.05-10.85-.62-1.95-1.23-3.62-2.43-5.65l-5.28-8.98c-2.08,8.48-2.9,13.97.53,21.62.99,2.2,2.71,4.15,4.15,6.05l.81.94c.09.2.96,2.52.92,6.39l-1.3,18.57c1.56-1.4,9.43-22.02,11.41-29.96,1.12-2.03,2.36-4.06,3.42-5.23.24-.17,1.05-.96,1.21-1.12,3.2-3.48,5.32-5.39,8.08-9.53,5.5-8.23,8.45-17.56,8.23-27.62-.14-6.18.7-11.8,1.24-17.99l-10.46,11.71ZM167.78,165.9l-3.1-4.62c-2.39-3.6-2.51-10.64-.86-15.62,1.29,5.25,4.27,19.19,3.96,20.24ZM181.35,131.34h.01c3.08-9.16,10.38-17.32,17.29-24.24,0,0,0,0,.01.02l-18.37,47.78c-1.2-7.58-1.4-15.94,1.05-23.56ZM198.93,109.8l-.24,14.83c-.18,11.34-8.47,23.2-16.2,31.17-.14-.07-.16-.05-.33-.18l-.17-.23c-.06-.12-.1-.36-.1-.68l8.34-24.13,8.43-23.48c.45.53.26.92.26,1.15v1.53Z"/>
    <path class="cls-7" d="M248.79,313.56c-.16-.82-3.51-7.43-3.54-9.18,4.49-5.73-5.48-13.92-3.75-3.21,2.92,3.88-.04-1.9,1.7-3.2,1.09,4.33,1.87,9.85,3.4,14.54-39.12-17.01-9.73-26.52-44.92-54.95,2.3,24.27,6.73,29.96,25.95,43.93,7.9,5.64-10.12-1.2-10.68-.89-16.4-9.68-29.75-11.24-48.42-6.81,28.74,18.41,32.82,2.21,56.77,10.22,9.07,3.09,17.53,7.96,25.75,12.85,5.77,1.8,3.16,0-2.26-3.3ZM218.81,292.58c-9.08-5.15-15.18-17.49-13.52-27.47,2.44,7.19,13.12,20.57,13.52,27.47ZM219.59,289.81c-3.62-7.68-10.58-17.96-13.48-25.93,8.7,7.59,15.73,17.02,16.28,29.18l-2.79-3.25ZM206.54,297.25c-6.71,1.25-20.7-2.27-29.31-2.59,10.35-3.57,20.77-3.06,29.31,2.59ZM201.44,301.97c-9,.59-18.35-1.57-26.02-6.2,9.33,1.18,25.57,1.59,34.56,4.55l-8.53,1.65Z"/>
  </g>
</svg>